<svg width="18" height="17" viewBox="0 0 18 17" fill="none" xmlns="http://www.w3.org/2000/svg">
<path d="M10.9562 8.5026L16.8937 2.5651C17.1755 2.28381 17.334 1.90209 17.3344 1.50393C17.3348 1.10576 17.1769 0.72377 16.8956 0.441977C16.6143 0.160185 16.2326 0.00167771 15.8344 0.00132608C15.4363 0.000974453 15.0543 0.158807 14.7725 0.440102L8.835 6.3776L2.8975 0.440102C2.61571 0.15831 2.23351 0 1.835 0C1.43648 0 1.05429 0.15831 0.7725 0.440102C0.490707 0.721895 0.332397 1.10409 0.332397 1.5026C0.332397 1.90112 0.490707 2.28331 0.7725 2.5651L6.71 8.5026L0.7725 14.4401C0.490707 14.7219 0.332397 15.1041 0.332397 15.5026C0.332397 15.9011 0.490707 16.2833 0.7725 16.5651C1.05429 16.8469 1.43648 17.0052 1.835 17.0052C2.23351 17.0052 2.61571 16.8469 2.8975 16.5651L8.835 10.6276L14.7725 16.5651C15.0543 16.8469 15.4365 17.0052 15.835 17.0052C16.2335 17.0052 16.6157 16.8469 16.8975 16.5651C17.1793 16.2833 17.3376 15.9011 17.3376 15.5026C17.3376 15.1041 17.1793 14.7219 16.8975 14.4401L10.9562 8.5026Z" fill="black"/>
</svg>
