<svg width="23" height="17" viewBox="0 0 23 17" fill="none" xmlns="http://www.w3.org/2000/svg">
<path d="M0.969971 1.16666C0.969971 0.901448 1.07533 0.647094 1.26286 0.459557C1.4504 0.272021 1.70475 0.166664 1.96997 0.166664H21.97C22.2352 0.166664 22.4895 0.272021 22.6771 0.459557C22.8646 0.647094 22.97 0.901448 22.97 1.16666C22.97 1.43188 22.8646 1.68623 22.6771 1.87377C22.4895 2.06131 22.2352 2.16666 21.97 2.16666H1.96997C1.70475 2.16666 1.4504 2.06131 1.26286 1.87377C1.07533 1.68623 0.969971 1.43188 0.969971 1.16666ZM0.969971 8.5C0.969971 8.23478 1.07533 7.98043 1.26286 7.79289C1.4504 7.60535 1.70475 7.5 1.96997 7.5H21.97C22.2352 7.5 22.4895 7.60535 22.6771 7.79289C22.8646 7.98043 22.97 8.23478 22.97 8.5C22.97 8.76521 22.8646 9.01957 22.6771 9.2071C22.4895 9.39464 22.2352 9.5 21.97 9.5H1.96997C1.70475 9.5 1.4504 9.39464 1.26286 9.2071C1.07533 9.01957 0.969971 8.76521 0.969971 8.5ZM0.969971 15.8333C0.969971 15.5681 1.07533 15.3138 1.26286 15.1262C1.4504 14.9387 1.70475 14.8333 1.96997 14.8333H21.97C22.2352 14.8333 22.4895 14.9387 22.6771 15.1262C22.8646 15.3138 22.97 15.5681 22.97 15.8333C22.97 16.0985 22.8646 16.3529 22.6771 16.5404C22.4895 16.728 22.2352 16.8333 21.97 16.8333H1.96997C1.70475 16.8333 1.4504 16.728 1.26286 16.5404C1.07533 16.3529 0.969971 16.0985 0.969971 15.8333Z" fill="#111827"/>
</svg>
