<svg width="24" height="24" viewBox="0 0 24 24" fill="none" xmlns="http://www.w3.org/2000/svg">
<g id="mynaui:lock-octagon">
<g id="Group">
<path id="Vector" d="M7.805 3.469C8.16 3.115 8.451 3 8.937 3H15.063C15.549 3 15.841 3.115 16.195 3.469L20.531 7.805C20.885 8.159 21 8.451 21 8.937V15.063C21 15.563 20.875 15.851 20.531 16.195L16.195 20.531C15.841 20.885 15.549 21 15.063 21H8.937C8.437 21 8.149 20.875 7.805 20.531L3.47 16.195C3.115 15.84 3 15.549 3 15.063V8.937C3 8.437 3.125 8.149 3.469 7.805L7.805 3.469Z" stroke="#0F172A" stroke-width="1.5" stroke-linecap="round" stroke-linejoin="round"/>
<path id="Vector_2" d="M14.004 10.947V8.925C14.004 6.284 9.99601 6.434 9.99601 8.925V10.946M9.00201 10.946H14.998C15.551 10.946 16 11.399 16 11.957V14.989C16 15.547 15.551 16 14.998 16H9.00201C8.8699 15.9995 8.73918 15.9729 8.61733 15.9219C8.49548 15.8709 8.38487 15.7963 8.29183 15.7025C8.19878 15.6087 8.12512 15.4975 8.07505 15.3753C8.02498 15.253 7.99948 15.1221 8.00001 14.99V11.957C8.00001 11.399 8.44901 10.946 9.00201 10.946Z" stroke="#0F172A" stroke-width="1.5" stroke-linecap="round" stroke-linejoin="round"/>
</g>
</g>
</svg>
