<svg width="30" height="29" viewBox="0 0 30 29" fill="none" xmlns="http://www.w3.org/2000/svg">
<path d="M25.6173 9.83731L25.2893 10.592C25.238 10.7149 25.1516 10.8198 25.0408 10.8937C24.93 10.9675 24.7998 11.0069 24.6666 11.0069C24.5335 11.0069 24.4033 10.9675 24.2925 10.8937C24.1817 10.8198 24.0952 10.7149 24.044 10.592L23.716 9.83731C23.1393 8.50227 22.0831 7.43187 20.756 6.83731L19.744 6.38531C19.6212 6.32883 19.5172 6.23833 19.4443 6.12455C19.3714 6.01076 19.3326 5.87845 19.3326 5.74331C19.3326 5.60817 19.3714 5.47586 19.4443 5.36207C19.5172 5.24828 19.6212 5.15778 19.744 5.10131L20.7 4.67597C22.0605 4.06448 23.1347 2.95448 23.7013 1.57464L24.0386 0.759975C24.0882 0.63378 24.1746 0.525439 24.2866 0.449075C24.3986 0.372711 24.5311 0.331867 24.6666 0.331867C24.8022 0.331867 24.9346 0.372711 25.0466 0.449075C25.1587 0.525439 25.2451 0.63378 25.2946 0.759975L25.632 1.57331C26.1979 2.95341 27.2717 4.06389 28.632 4.67597L29.5893 5.10264C29.7117 5.15928 29.8153 5.24976 29.888 5.36341C29.9606 5.47705 29.9992 5.6091 29.9992 5.74397C29.9992 5.87885 29.9606 6.0109 29.888 6.12454C29.8153 6.23819 29.7117 6.32867 29.5893 6.38531L28.576 6.83597C27.249 7.43113 26.1934 8.50201 25.6173 9.83731ZM14 1.66664C6.63596 1.66664 0.666626 7.63598 0.666626 15C0.666626 17.2706 1.23329 19.408 2.23463 21.2786L0.666626 28.3333L7.72129 26.7653C9.65286 27.7977 11.8098 28.3364 14 28.3333C21.364 28.3333 27.3333 22.364 27.3333 15C27.3333 14.4631 27.3022 13.9342 27.24 13.4133L24.592 13.7266C24.6417 14.1444 24.6666 14.5689 24.6666 15C24.6666 17.829 23.5428 20.5421 21.5424 22.5424C19.542 24.5428 16.8289 25.6666 14 25.6666C12.2484 25.6696 10.5233 25.239 8.97863 24.4133L8.10796 23.948L4.17863 24.8213L5.05196 20.892L4.58529 20.0213C3.76003 18.4765 3.32991 16.7514 3.33329 15C3.33288 13.3718 3.70519 11.7652 4.42169 10.3032C5.13819 8.84115 6.17988 7.56255 7.46692 6.56535C8.75396 5.56815 10.2522 4.87882 11.8468 4.55017C13.4415 4.22152 15.0902 4.26227 16.6666 4.66931L17.3306 2.08664C16.264 1.81197 15.148 1.66664 14 1.66664ZM9.99996 15H7.33329C7.33329 16.7681 8.03567 18.4638 9.28591 19.714C10.5362 20.9643 12.2318 21.6666 14 21.6666C15.7681 21.6666 17.4638 20.9643 18.714 19.714C19.9642 18.4638 20.6666 16.7681 20.6666 15H18C18 16.0608 17.5785 17.0783 16.8284 17.8284C16.0782 18.5785 15.0608 19 14 19C12.9391 19 11.9217 18.5785 11.1715 17.8284C10.4214 17.0783 9.99996 16.0608 9.99996 15Z" fill="#0F172A"/>
</svg>
