<svg width="147" height="34" viewBox="0 0 147 34" fill="none" xmlns="http://www.w3.org/2000/svg">
<path d="M27.6174 11.8373L27.2894 12.592C27.2382 12.7149 27.1517 12.8198 27.0409 12.8937C26.9301 12.9675 26.7999 13.0069 26.6667 13.0069C26.5336 13.0069 26.4034 12.9675 26.2926 12.8937C26.1818 12.8198 26.0953 12.7149 26.0441 12.592L25.7161 11.8373C25.1394 10.5023 24.0833 9.43187 22.7561 8.83731L21.7441 8.38531C21.6213 8.32883 21.5173 8.23833 21.4444 8.12455C21.3715 8.01076 21.3327 7.87845 21.3327 7.74331C21.3327 7.60817 21.3715 7.47586 21.4444 7.36207C21.5173 7.24828 21.6213 7.15778 21.7441 7.10131L22.7001 6.67597C24.0606 6.06448 25.1348 4.95448 25.7014 3.57464L26.0387 2.75997C26.0883 2.63378 26.1747 2.52544 26.2867 2.44907C26.3987 2.37271 26.5312 2.33187 26.6667 2.33187C26.8023 2.33187 26.9347 2.37271 27.0468 2.44907C27.1588 2.52544 27.2452 2.63378 27.2948 2.75997L27.6321 3.57331C28.1981 4.95341 29.2718 6.06389 30.6321 6.67597L31.5894 7.10264C31.7118 7.15928 31.8155 7.24976 31.8881 7.36341C31.9607 7.47705 31.9993 7.6091 31.9993 7.74397C31.9993 7.87885 31.9607 8.0109 31.8881 8.12454C31.8155 8.23819 31.7118 8.32867 31.5894 8.38531L30.5761 8.83597C29.2492 9.43113 28.1935 10.502 27.6174 11.8373ZM16.0001 3.66664C8.63608 3.66664 2.66675 9.63598 2.66675 17C2.66675 19.2706 3.23341 21.408 4.23475 23.2786L2.66675 30.3333L9.72141 28.7653C11.653 29.7977 13.8099 30.3364 16.0001 30.3333C23.3641 30.3333 29.3334 24.364 29.3334 17C29.3334 16.4631 29.3023 15.9342 29.2401 15.4133L26.5921 15.7266C26.6419 16.1444 26.6667 16.5689 26.6667 17C26.6667 19.829 25.5429 22.5421 23.5426 24.5424C21.5422 26.5428 18.8291 27.6666 16.0001 27.6666C14.2485 27.6696 12.5235 27.239 10.9787 26.4133L10.1081 25.948L6.17875 26.8213L7.05208 22.892L6.58541 22.0213C5.76016 20.4765 5.33004 18.7514 5.33341 17C5.333 15.3718 5.70531 13.7652 6.42181 12.3032C7.13832 10.8411 8.18 9.56255 9.46704 8.56535C10.7541 7.56815 12.2523 6.87882 13.847 6.55017C15.4416 6.22152 17.0903 6.26227 18.6667 6.66931L19.3307 4.08664C18.2641 3.81197 17.1481 3.66664 16.0001 3.66664ZM12.0001 17H9.33342C9.33342 18.7681 10.0358 20.4638 11.286 21.714C12.5363 22.9643 14.232 23.6666 16.0001 23.6666C17.7682 23.6666 19.4639 22.9643 20.7141 21.714C21.9644 20.4638 22.6667 18.7681 22.6667 17H20.0001C20.0001 18.0608 19.5787 19.0783 18.8285 19.8284C18.0784 20.5785 17.0609 21 16.0001 21C14.9392 21 13.9218 20.5785 13.1717 19.8284C12.4215 19.0783 12.0001 18.0608 12.0001 17Z" fill="#0F172A"/>
<path d="M44.8676 17.653C45.5089 17.653 46.0679 17.575 46.5446 17.419C47.0212 17.2543 47.4156 17.0247 47.7276 16.73C48.0482 16.4267 48.2866 16.0627 48.4426 15.638C48.5986 15.2047 48.6766 14.7237 48.6766 14.195C48.6766 13.6923 48.5986 13.2373 48.4426 12.83C48.2866 12.4227 48.0526 12.076 47.7406 11.79C47.4286 11.504 47.0342 11.2873 46.5576 11.14C46.0809 10.984 45.5176 10.906 44.8676 10.906H42.2546V17.653H44.8676ZM44.8676 8.202C46.1242 8.202 47.2119 8.34933 48.1306 8.644C49.0492 8.93867 49.8076 9.35033 50.4056 9.879C51.0036 10.4077 51.4456 11.0403 51.7316 11.777C52.0262 12.5137 52.1736 13.3197 52.1736 14.195C52.1736 15.105 52.0219 15.9413 51.7186 16.704C51.4152 17.458 50.9602 18.108 50.3536 18.654C49.7469 19.2 48.9842 19.6247 48.0656 19.928C47.1556 20.2313 46.0896 20.383 44.8676 20.383H42.2546V27H38.7576V8.202H44.8676ZM60.793 21.306C59.8656 21.3493 59.0856 21.4317 58.453 21.553C57.8203 21.6657 57.3133 21.813 56.932 21.995C56.5506 22.177 56.2776 22.3893 56.113 22.632C55.9483 22.8747 55.866 23.139 55.866 23.425C55.866 23.9883 56.0306 24.3913 56.36 24.634C56.698 24.8767 57.1356 24.998 57.673 24.998C58.3316 24.998 58.8993 24.881 59.376 24.647C59.8613 24.4043 60.3336 24.0403 60.793 23.555V21.306ZM53.435 15.521C54.969 14.117 56.815 13.415 58.973 13.415C59.753 13.415 60.4506 13.545 61.066 13.805C61.6813 14.0563 62.2013 14.4117 62.626 14.871C63.0506 15.3217 63.3713 15.8633 63.588 16.496C63.8133 17.1287 63.926 17.822 63.926 18.576V27H62.47C62.1666 27 61.9326 26.9567 61.768 26.87C61.6033 26.7747 61.4733 26.5883 61.378 26.311L61.092 25.349C60.754 25.6523 60.4246 25.921 60.104 26.155C59.7833 26.3803 59.4496 26.571 59.103 26.727C58.7563 26.883 58.3836 27 57.985 27.078C57.595 27.1647 57.1616 27.208 56.685 27.208C56.1216 27.208 55.6016 27.1343 55.125 26.987C54.6483 26.831 54.2366 26.6013 53.89 26.298C53.5433 25.9947 53.2746 25.6177 53.084 25.167C52.8933 24.7163 52.798 24.192 52.798 23.594C52.798 23.256 52.8543 22.9223 52.967 22.593C53.0796 22.255 53.2616 21.9343 53.513 21.631C53.773 21.3277 54.1066 21.0417 54.514 20.773C54.9213 20.5043 55.4196 20.2703 56.009 20.071C56.607 19.8717 57.3003 19.7113 58.089 19.59C58.8776 19.46 59.779 19.382 60.793 19.356V18.576C60.793 17.6833 60.6023 17.0247 60.221 16.6C59.8396 16.1667 59.2893 15.95 58.57 15.95C58.05 15.95 57.6166 16.0107 57.27 16.132C56.932 16.2533 56.633 16.392 56.373 16.548C56.113 16.6953 55.8746 16.8297 55.658 16.951C55.45 17.0723 55.216 17.133 54.956 17.133C54.7306 17.133 54.54 17.0767 54.384 16.964C54.228 16.8427 54.1023 16.704 54.007 16.548L53.435 15.521ZM75.1271 17.068C74.7631 16.626 74.3644 16.314 73.9311 16.132C73.5064 15.95 73.0471 15.859 72.5531 15.859C72.0677 15.859 71.6301 15.95 71.2401 16.132C70.8501 16.314 70.5164 16.5913 70.2391 16.964C69.9617 17.328 69.7494 17.796 69.6021 18.368C69.4547 18.9313 69.3811 19.5987 69.3811 20.37C69.3811 21.15 69.4417 21.813 69.5631 22.359C69.6931 22.8963 69.8751 23.3383 70.1091 23.685C70.3431 24.023 70.6291 24.27 70.9671 24.426C71.3051 24.5733 71.6821 24.647 72.0981 24.647C72.7654 24.647 73.3331 24.5083 73.8011 24.231C74.2691 23.9537 74.7111 23.5593 75.1271 23.048V17.068ZM78.3381 7.682V27H76.3751C75.9504 27 75.6817 26.805 75.5691 26.415L75.2961 25.128C74.7587 25.7433 74.1391 26.2417 73.4371 26.623C72.7437 27.0043 71.9334 27.195 71.0061 27.195C70.2781 27.195 69.6107 27.0433 69.0041 26.74C68.3974 26.4367 67.8731 25.999 67.4311 25.427C66.9977 24.8463 66.6597 24.1313 66.4171 23.282C66.1831 22.4327 66.0661 21.462 66.0661 20.37C66.0661 19.382 66.2004 18.4633 66.4691 17.614C66.7377 16.7647 67.1234 16.028 67.6261 15.404C68.1287 14.78 68.7311 14.2947 69.4331 13.948C70.1351 13.5927 70.9237 13.415 71.7991 13.415C72.5444 13.415 73.1814 13.532 73.7101 13.766C74.2387 14 74.7111 14.3163 75.1271 14.715V7.682H78.3381ZM84.64 13.662V27H81.416V13.662H84.64ZM85.082 9.775C85.082 10.0523 85.0257 10.3123 84.913 10.555C84.8004 10.7977 84.6487 11.01 84.458 11.192C84.276 11.374 84.0594 11.5213 83.808 11.634C83.5567 11.738 83.288 11.79 83.002 11.79C82.7247 11.79 82.4604 11.738 82.209 11.634C81.9664 11.5213 81.754 11.374 81.572 11.192C81.39 11.01 81.2427 10.7977 81.13 10.555C81.026 10.3123 80.974 10.0523 80.974 9.775C80.974 9.489 81.026 9.22033 81.13 8.969C81.2427 8.71767 81.39 8.501 81.572 8.319C81.754 8.137 81.9664 7.994 82.209 7.89C82.4604 7.77733 82.7247 7.721 83.002 7.721C83.288 7.721 83.5567 7.77733 83.808 7.89C84.0594 7.994 84.276 8.137 84.458 8.319C84.6487 8.501 84.8004 8.71767 84.913 8.969C85.0257 9.22033 85.082 9.489 85.082 9.775ZM100.931 22.567C101.122 22.567 101.291 22.6407 101.438 22.788L102.816 24.283C102.054 25.2277 101.113 25.9513 99.9955 26.454C98.8861 26.9567 97.5515 27.208 95.9915 27.208C94.5961 27.208 93.3395 26.9697 92.2215 26.493C91.1121 26.0163 90.1631 25.3533 89.3745 24.504C88.5858 23.6547 87.9791 22.6407 87.5545 21.462C87.1385 20.2833 86.9305 18.9963 86.9305 17.601C86.9305 16.1883 87.1558 14.897 87.6065 13.727C88.0571 12.5483 88.6898 11.5343 89.5045 10.685C90.3278 9.83567 91.3071 9.177 92.4425 8.709C93.5778 8.23233 94.8345 7.994 96.2125 7.994C97.5818 7.994 98.7951 8.21933 99.8525 8.67C100.918 9.12067 101.824 9.71 102.569 10.438L101.399 12.063C101.33 12.167 101.239 12.258 101.126 12.336C101.022 12.414 100.875 12.453 100.684 12.453C100.554 12.453 100.42 12.4183 100.281 12.349C100.143 12.271 99.9911 12.18 99.8265 12.076C99.6618 11.9633 99.4711 11.842 99.2545 11.712C99.0378 11.582 98.7865 11.465 98.5005 11.361C98.2145 11.2483 97.8808 11.1573 97.4995 11.088C97.1268 11.01 96.6935 10.971 96.1995 10.971C95.3588 10.971 94.5875 11.1227 93.8855 11.426C93.1921 11.7207 92.5941 12.154 92.0915 12.726C91.5888 13.2893 91.1988 13.9827 90.9215 14.806C90.6441 15.6207 90.5055 16.5523 90.5055 17.601C90.5055 18.6583 90.6528 19.5987 90.9475 20.422C91.2508 21.2453 91.6581 21.9387 92.1695 22.502C92.6808 23.0653 93.2831 23.4987 93.9765 23.802C94.6698 24.0967 95.4151 24.244 96.2125 24.244C96.6891 24.244 97.1181 24.218 97.4995 24.166C97.8895 24.114 98.2448 24.0317 98.5655 23.919C98.8948 23.8063 99.2025 23.6633 99.4885 23.49C99.7831 23.308 100.073 23.087 100.359 22.827C100.446 22.749 100.537 22.6883 100.632 22.645C100.728 22.593 100.827 22.567 100.931 22.567ZM107.721 15.092C108.241 14.6067 108.813 14.2123 109.437 13.909C110.061 13.6057 110.793 13.454 111.634 13.454C112.362 13.454 113.008 13.5797 113.571 13.831C114.134 14.0737 114.602 14.4203 114.975 14.871C115.356 15.313 115.642 15.846 115.833 16.47C116.032 17.0853 116.132 17.7657 116.132 18.511V27H112.921V18.511C112.921 17.6963 112.735 17.068 112.362 16.626C111.989 16.1753 111.422 15.95 110.659 15.95C110.104 15.95 109.584 16.0757 109.099 16.327C108.614 16.5783 108.154 16.9207 107.721 17.354V27H104.51V7.682H107.721V15.092ZM126.037 21.306C125.109 21.3493 124.329 21.4317 123.697 21.553C123.064 21.6657 122.557 21.813 122.176 21.995C121.794 22.177 121.521 22.3893 121.357 22.632C121.192 22.8747 121.11 23.139 121.11 23.425C121.11 23.9883 121.274 24.3913 121.604 24.634C121.942 24.8767 122.379 24.998 122.917 24.998C123.575 24.998 124.143 24.881 124.62 24.647C125.105 24.4043 125.577 24.0403 126.037 23.555V21.306ZM118.679 15.521C120.213 14.117 122.059 13.415 124.217 13.415C124.997 13.415 125.694 13.545 126.31 13.805C126.925 14.0563 127.445 14.4117 127.87 14.871C128.294 15.3217 128.615 15.8633 128.832 16.496C129.057 17.1287 129.17 17.822 129.17 18.576V27H127.714C127.41 27 127.176 26.9567 127.012 26.87C126.847 26.7747 126.717 26.5883 126.622 26.311L126.336 25.349C125.998 25.6523 125.668 25.921 125.348 26.155C125.027 26.3803 124.693 26.571 124.347 26.727C124 26.883 123.627 27 123.229 27.078C122.839 27.1647 122.405 27.208 121.929 27.208C121.365 27.208 120.845 27.1343 120.369 26.987C119.892 26.831 119.48 26.6013 119.134 26.298C118.787 25.9947 118.518 25.6177 118.328 25.167C118.137 24.7163 118.042 24.192 118.042 23.594C118.042 23.256 118.098 22.9223 118.211 22.593C118.323 22.255 118.505 21.9343 118.757 21.631C119.017 21.3277 119.35 21.0417 119.758 20.773C120.165 20.5043 120.663 20.2703 121.253 20.071C121.851 19.8717 122.544 19.7113 123.333 19.59C124.121 19.46 125.023 19.382 126.037 19.356V18.576C126.037 17.6833 125.846 17.0247 125.465 16.6C125.083 16.1667 124.533 15.95 123.814 15.95C123.294 15.95 122.86 16.0107 122.514 16.132C122.176 16.2533 121.877 16.392 121.617 16.548C121.357 16.6953 121.118 16.8297 120.902 16.951C120.694 17.0723 120.46 17.133 120.2 17.133C119.974 17.133 119.784 17.0767 119.628 16.964C119.472 16.8427 119.346 16.704 119.251 16.548L118.679 15.521ZM136.267 27.208C135.106 27.208 134.213 26.883 133.589 26.233C132.974 25.5743 132.666 24.6687 132.666 23.516V16.067H131.301C131.128 16.067 130.98 16.0107 130.859 15.898C130.738 15.7853 130.677 15.6163 130.677 15.391V14.117L132.822 13.766L133.498 10.126C133.541 9.95267 133.624 9.81833 133.745 9.723C133.866 9.62767 134.022 9.58 134.213 9.58H135.877V13.779H139.439V16.067H135.877V23.295C135.877 23.711 135.977 24.036 136.176 24.27C136.384 24.504 136.666 24.621 137.021 24.621C137.22 24.621 137.385 24.5993 137.515 24.556C137.654 24.504 137.771 24.452 137.866 24.4C137.97 24.348 138.061 24.3003 138.139 24.257C138.217 24.205 138.295 24.179 138.373 24.179C138.468 24.179 138.546 24.205 138.607 24.257C138.668 24.3003 138.733 24.3697 138.802 24.465L139.764 26.025C139.296 26.415 138.759 26.7097 138.152 26.909C137.545 27.1083 136.917 27.208 136.267 27.208ZM140.832 25.232C140.832 24.9633 140.88 24.7077 140.975 24.465C141.079 24.2223 141.218 24.0143 141.391 23.841C141.564 23.6677 141.772 23.529 142.015 23.425C142.258 23.321 142.518 23.269 142.795 23.269C143.072 23.269 143.328 23.321 143.562 23.425C143.805 23.529 144.013 23.6677 144.186 23.841C144.368 24.0143 144.511 24.2223 144.615 24.465C144.719 24.7077 144.771 24.9633 144.771 25.232C144.771 25.5093 144.719 25.7693 144.615 26.012C144.511 26.246 144.368 26.4497 144.186 26.623C144.013 26.7963 143.805 26.9307 143.562 27.026C143.328 27.13 143.072 27.182 142.795 27.182C142.518 27.182 142.258 27.13 142.015 27.026C141.772 26.9307 141.564 26.7963 141.391 26.623C141.218 26.4497 141.079 26.246 140.975 26.012C140.88 25.7693 140.832 25.5093 140.832 25.232Z" fill="#0F172A"/>
</svg>
